<svg width="51" height="52" viewBox="0 0 51 52" fill="none" xmlns="http://www.w3.org/2000/svg">
<g clip-path="url(#clip0_360_380)">
<path d="M-170.352 41.6V8.98555H-164.112V41.6H-170.352ZM-143.125 42.1705C-146.005 42.1705 -148.485 41.7109 -150.565 40.7917C-152.645 39.8725 -154.245 38.478 -155.365 36.608C-156.453 34.7062 -156.997 32.345 -156.997 29.5241V8.98555H-150.757V29.3339C-150.757 31.8378 -150.101 33.7395 -148.789 35.039C-147.445 36.3068 -145.557 36.9408 -143.125 36.9408C-140.693 36.9408 -138.805 36.3068 -137.461 35.039C-136.085 33.7395 -135.397 31.8378 -135.397 29.3339V8.98555H-129.157V29.5241C-129.157 32.345 -129.717 34.7062 -130.837 36.608C-131.957 38.478 -133.557 39.8725 -135.637 40.7917C-137.717 41.7109 -140.213 42.1705 -143.125 42.1705ZM-122.071 41.6V8.98555H-104.743C-102.311 8.98555 -100.295 9.39759 -98.6948 10.2217C-97.0947 11.0457 -95.8948 12.2185 -95.0948 13.7398C-94.2948 15.2612 -93.8948 17.0519 -93.8948 19.1122C-93.8948 21.2357 -94.3748 23.1217 -95.3348 24.7698C-96.2948 26.3862 -97.7029 27.6065 -99.5588 28.4306L-92.7428 41.6H-99.5588L-105.607 29.4765H-115.831V41.6H-122.071ZM-115.831 24.2944H-105.223C-103.623 24.2944 -102.391 23.8348 -101.527 22.9156C-100.663 21.9964 -100.231 20.7286 -100.231 19.1122C-100.231 18.0662 -100.423 17.1946 -100.807 16.4973C-101.191 15.7683 -101.751 15.2137 -102.487 14.8333C-103.223 14.453 -104.135 14.2628 -105.223 14.2628H-115.831V24.2944ZM-87.6646 41.6V8.98555H-81.4246V41.6H-87.6646ZM-59.6216 42.1705C-62.9816 42.1705 -65.8616 41.5841 -68.2616 40.4114C-70.6296 39.2387 -72.4537 37.4162 -73.7336 34.944C-74.9816 32.4401 -75.6056 29.2229 -75.6056 25.2928C-75.6056 19.556 -74.1977 15.3088 -71.3816 12.5513C-68.5657 9.79378 -64.6457 8.41504 -59.6216 8.41504C-56.9017 8.41504 -54.4537 8.87462 -52.2776 9.79378C-50.0696 10.7129 -48.3257 12.1075 -47.0456 13.9776C-45.7337 15.8158 -45.0776 18.1613 -45.0776 21.0139H-51.4616C-51.4616 19.4291 -51.8137 18.0979 -52.5176 17.0203C-53.1896 15.9109 -54.1337 15.071 -55.3496 14.5005C-56.5656 13.93 -57.9576 13.6448 -59.5256 13.6448C-61.7017 13.6448 -63.5096 14.0726 -64.9496 14.9284C-66.3896 15.7525 -67.4617 16.9887 -68.1656 18.6368C-68.8376 20.2849 -69.1736 22.3292 -69.1736 24.7698V25.8157C-69.1736 28.288 -68.8376 30.3482 -68.1656 31.9963C-67.4617 33.6444 -66.4057 34.8805 -64.9976 35.7046C-63.5576 36.5288 -61.7336 36.9408 -59.5256 36.9408C-57.8616 36.9408 -56.4056 36.6714 -55.1576 36.1325C-53.9096 35.562 -52.9496 34.7379 -52.2776 33.6603C-51.5736 32.5509 -51.2216 31.204 -51.2216 29.6192H-45.0776C-45.0776 32.4717 -45.7177 34.833 -46.9976 36.703C-48.2777 38.5413 -50.0216 39.9201 -52.2296 40.8393C-54.4057 41.7267 -56.8697 42.1705 -59.6216 42.1705ZM-24.4039 42.1705C-27.8279 42.1705 -30.7879 41.5683 -33.2838 40.3638C-35.7798 39.1277 -37.6998 37.2577 -39.0439 34.7538C-40.3559 32.2499 -41.0119 29.0962 -41.0119 25.2928C-41.0119 21.4577 -40.3559 18.304 -39.0439 15.8317C-37.6998 13.3278 -35.7798 11.4736 -33.2838 10.2692C-30.7879 9.0331 -27.8279 8.41504 -24.4039 8.41504C-20.9476 8.41504 -17.9881 9.0331 -15.5235 10.2692C-13.0275 11.4736 -11.1241 13.3278 -9.81155 15.8317C-8.46754 18.304 -7.79555 21.4577 -7.79555 25.2928C-7.79555 29.0962 -8.46754 32.2499 -9.81155 34.7538C-11.1241 37.2577 -13.0275 39.1277 -15.5235 40.3638C-17.9881 41.5683 -20.9476 42.1705 -24.4039 42.1705ZM-24.4039 36.9408C-22.7401 36.9408 -21.2836 36.703 -20.0356 36.2276C-18.7561 35.7522 -17.6835 35.0549 -16.8195 34.1357C-15.9556 33.1849 -15.3 32.0279 -14.8515 30.6651C-14.4046 29.2705 -14.1796 27.6699 -14.1796 25.8633V24.8173C-14.1796 22.9791 -14.4046 21.3626 -14.8515 19.968C-15.3 18.5733 -15.9556 17.4165 -16.8195 16.4973C-17.6835 15.5465 -18.7561 14.8333 -20.0356 14.3579C-21.2836 13.8825 -22.7401 13.6448 -24.4039 13.6448C-26.0679 13.6448 -27.5399 13.8825 -28.8199 14.3579C-30.0679 14.8333 -31.1239 15.5465 -31.9879 16.4973C-32.8519 17.4165 -33.5079 18.5733 -33.9558 19.968C-34.3719 21.3626 -34.5798 22.9791 -34.5798 24.8173V25.8633C-34.5798 27.6699 -34.3719 29.2705 -33.9558 30.6651C-33.5079 32.0279 -32.8519 33.1849 -31.9879 34.1357C-31.1239 35.0549 -30.0679 35.7522 -28.8199 36.2276C-27.5399 36.703 -26.0679 36.9408 -24.4039 36.9408ZM55.6799 41.6V8.98555H81.36V14.2628H61.9199V22.2976H79.2479V27.5748H61.9199V36.3227H81.6479V41.6H55.6799Z" fill="white"/>
<path d="M13.071 10.1152C12.4155 10.1152 11.8995 10.208 11.5245 10.3935C11.181 10.579 10.932 10.9964 10.776 11.6457C10.65 12.295 10.5885 13.3308 10.5885 14.7531V19.2981C10.5885 20.4732 10.401 21.4934 10.026 22.3591C9.6825 23.194 9.276 23.8743 8.808 24.3998C8.3385 24.9254 7.902 25.3275 7.4955 25.6057C7.839 25.8531 8.2455 26.2395 8.7135 26.7652C9.213 27.2598 9.651 27.8783 10.026 28.6202C10.401 29.3315 10.5885 30.1354 10.5885 31.032V36.5973C10.5885 37.9887 10.65 39.0091 10.776 39.6584C10.932 40.3076 11.181 40.7251 11.5245 40.9107C11.8995 41.0961 12.4155 41.1889 13.071 41.1889H14.805V46.8471H11.103C10.2285 46.8471 9.354 46.8315 8.4795 46.8006C7.6365 46.7697 6.855 46.5998 6.138 46.2906C5.4195 46.0123 4.8405 45.4712 4.404 44.6673C3.9975 43.8943 3.795 42.7657 3.795 41.2816V33.6292C3.795 32.7016 3.654 31.8359 3.3735 31.032C3.0915 30.1972 2.67 29.5169 2.1075 28.9914C1.5465 28.4657 0.843 28.2029 0 28.2029V22.823C0.843 22.7921 1.5465 22.5293 2.1075 22.0345C2.67 21.5089 3.0915 20.8442 3.3735 20.0402C3.654 19.2054 3.795 18.3242 3.795 17.3967V10.0688C3.795 8.58473 3.9975 7.45618 4.404 6.68321C4.8105 5.91022 5.3565 5.36914 6.0435 5.05995C6.762 4.75076 7.5585 4.5807 8.433 4.54978C9.3075 4.48795 10.197 4.45703 11.103 4.45703H14.805V10.1152H13.071ZM48 26.0231C48 29.1768 47.61 32.1296 46.8285 34.8813C46.0785 37.6332 45.111 40.0758 43.9245 42.2092C42.738 44.3736 41.472 46.1514 40.1295 47.5427L34.7415 45.0846C35.9595 43.6933 37.053 42.0547 38.0205 40.1685C38.9895 38.3133 39.7545 36.2109 40.317 33.8611C40.8795 31.4802 41.16 28.8676 41.16 26.0231C41.16 23.1785 40.8795 20.5813 40.317 18.2315C39.7545 15.8507 38.9895 13.7327 38.0205 11.8776C37.053 9.99154 35.9595 8.36829 34.7415 7.00785L40.1295 4.50342C41.472 5.89477 42.738 7.67262 43.9245 9.83695C45.111 12.0013 46.0785 14.4593 46.8285 17.2111C47.61 19.9321 48 22.8693 48 26.0231Z" fill="#986DFF"/>
</g>
<defs>
<clipPath id="clip0_360_380">
<rect width="51" height="52" fill="white"/>
</clipPath>
</defs>
</svg>
