<svg width="10" height="21" viewBox="0 0 10 21" fill="none" xmlns="http://www.w3.org/2000/svg">
<path d="M8.34077 20.4999C8.12731 20.5006 7.9164 20.4535 7.72354 20.3621C7.53068 20.2706 7.36076 20.1371 7.22628 19.9714L0.325041 11.4008C0.114887 11.1452 0 10.8246 0 10.4937C0 10.1628 0.114887 9.84224 0.325041 9.58665L7.46918 1.01603C7.71171 0.724316 8.06022 0.540869 8.43804 0.506044C8.81586 0.47122 9.19204 0.587868 9.48383 0.830329C9.77562 1.07279 9.95912 1.4212 9.99395 1.79892C10.0288 2.17663 9.91211 2.55271 9.66958 2.84442L3.28272 10.5008L9.45526 18.1573C9.62998 18.3669 9.74096 18.6223 9.77508 18.893C9.8092 19.1638 9.76503 19.4386 9.64779 19.6851C9.53054 19.9315 9.34514 20.1392 9.11351 20.2836C8.88188 20.428 8.61372 20.5031 8.34077 20.4999Z" fill="white"/>
</svg>
