<svg width="10" height="21" viewBox="0 0 10 21" fill="none" xmlns="http://www.w3.org/2000/svg">
<path d="M1.41908 20.4974C1.08809 20.4981 0.767322 20.3821 0.512462 20.1696C0.369021 20.0499 0.250451 19.903 0.163541 19.7371C0.0766308 19.5713 0.0230893 19.3898 0.00598283 19.2031C-0.0111236 19.0164 0.00854139 18.8282 0.0638511 18.6491C0.119161 18.4701 0.209027 18.3038 0.328306 18.1597L6.67459 10.5195L0.554961 2.86509C0.437291 2.71929 0.349418 2.55153 0.296393 2.37144C0.243368 2.19136 0.226236 2.0025 0.245982 1.81573C0.265728 1.62896 0.321962 1.44796 0.411452 1.28313C0.500943 1.1183 0.621927 0.972894 0.767447 0.855266C0.914015 0.725501 1.08566 0.627622 1.2716 0.56777C1.45754 0.507919 1.65378 0.487387 1.84798 0.507464C2.04218 0.527541 2.23017 0.587793 2.40013 0.684438C2.5701 0.781083 2.71837 0.912036 2.83566 1.06908L9.67775 9.62154C9.8861 9.87659 10 10.1965 10 10.5267C10 10.8568 9.8861 11.1768 9.67775 11.4318L2.59484 19.9843C2.45273 20.1568 2.27221 20.2931 2.06792 20.3823C1.86364 20.4714 1.64135 20.5109 1.41908 20.4974Z" fill="white"/>
</svg>
