<svg width="64" height="70" viewBox="0 0 64 70" fill="none" xmlns="http://www.w3.org/2000/svg">
<path d="M58.5454 14.5833C60 9.35764 57.8182 3.64584 57.697 3.28126C57.3333 2.43056 56.4848 1.7014 55.5151 1.7014C55.2727 1.7014 49.697 1.21529 44.1212 5.46876C39.7576 4.61806 34.7879 4.37501 34.5454 4.37501C34.4242 4.37501 34.4242 4.37501 34.303 4.37501C34.0606 4.37501 29.0909 4.61806 24.7273 5.46876C19.1515 1.21529 13.5757 1.7014 13.3333 1.7014C12.3636 1.82292 11.5151 2.43056 11.1515 3.28126C11.0303 3.52431 8.72726 9.35764 10.303 14.5833C7.51514 18.4722 5.33332 23.5764 7.27271 32.691C9.09089 40.9549 15.8788 45.5729 22.9091 47.1528C22.303 48.8542 22.0606 50.9201 21.8182 53.1076C18.9091 53.2292 17.0909 51.5278 14.5454 48.8542C12.3636 46.5451 9.93938 43.8715 5.93938 43.0208C4.60605 42.6563 3.27271 43.507 2.90908 44.9653C2.66665 46.4236 3.51514 47.7604 4.96968 48.0035C7.27271 48.4896 8.84847 50.191 10.7879 52.257C13.3333 54.9306 16.2424 58.2118 21.4545 58.2118H21.5757C21.5757 61.0069 21.8182 63.6806 21.9394 65.8681C22.0606 67.3264 23.2727 68.2986 24.7273 68.1771C26.1818 68.0556 27.1515 66.8403 27.0303 65.382C26.303 57.1181 26.9091 48.3681 28.2424 47.1528C29.2121 46.5451 29.8182 45.4514 29.4545 44.2361C29.2121 43.1424 28.2424 42.2917 27.0303 42.2917C25.9394 42.2917 14.5454 41.684 12.3636 31.5972C10.5454 23.3333 12.8485 19.6875 15.2727 16.7708C15.8788 16.0417 16 14.9479 15.6363 13.9757C14.6667 11.9097 15.0303 8.99306 15.5151 7.04862C17.2121 7.29167 19.7576 8.02084 22.4242 10.3299C23.0303 10.9375 23.8788 11.059 24.7273 10.9375C28.4848 9.96528 33.5757 9.72223 34.4242 9.72223C35.1515 9.72223 40.3636 9.96528 44.1212 10.9375C44.9697 11.1806 45.8182 10.9375 46.4242 10.3299C49.0909 8.02084 51.7576 7.29167 53.3333 7.04862C53.8182 8.87154 54.1818 11.7882 53.2121 13.9757C52.8485 14.8264 52.9697 15.9201 53.5757 16.7708C56 19.6875 58.1818 23.3333 56.4848 31.5972C54.303 41.684 42.9091 42.2917 41.5757 42.4132C40.3636 42.4132 39.3939 43.2639 39.1515 44.3576C38.9091 45.4514 39.3939 46.6667 40.3636 47.2743C41.8182 48.4896 42.4242 57.1181 41.697 65.5035C41.5757 66.9618 42.6667 68.1771 44 68.2986C44.1212 68.2986 44.1212 68.2986 44.2424 68.2986C45.5757 68.2986 46.6666 67.3264 46.7879 65.9896C47.2727 60.6424 47.6363 52.3785 45.9394 47.1528C52.9697 45.6945 59.7576 40.9549 61.5757 32.691C63.5151 23.5764 61.4545 18.4722 58.5454 14.5833Z" fill="white"/>
</svg>
