<svg width="33" height="33" viewBox="0 0 33 33" fill="none" xmlns="http://www.w3.org/2000/svg">
<path d="M21.6563 3.99515C21.6565 3.72181 21.7653 3.45975 21.9586 3.26656C22.152 3.07337 22.4142 2.96485 22.6875 2.96484H22.6885C24.0454 2.96799 25.3777 3.32678 26.5526 4.00542C27.7275 4.68407 28.704 5.65886 29.3847 6.8326C29.4525 6.94989 29.4965 7.0794 29.5143 7.21371C29.532 7.34802 29.5231 7.48451 29.4881 7.61538C29.453 7.74626 29.3926 7.86894 29.3101 7.97643C29.2276 8.08392 29.1248 8.17411 29.0075 8.24185C28.8901 8.30958 28.7606 8.35354 28.6263 8.3712C28.492 8.38886 28.3555 8.37988 28.2246 8.34478C28.0938 8.30968 27.9711 8.24914 27.8637 8.16662C27.7562 8.0841 27.6661 7.98121 27.5984 7.86385C27.0991 7.00295 26.3827 6.28801 25.5209 5.79031C24.659 5.29261 23.6817 5.02954 22.6865 5.02734C22.413 5.02708 22.1508 4.91818 21.9576 4.72461C21.7644 4.53104 21.656 4.26864 21.6563 3.99515ZM29.5189 22.0126C28.9377 24.1793 27.7271 26.125 26.0403 27.6039C24.3535 29.0827 22.2661 30.0283 20.042 30.3211C17.8179 30.6139 15.557 30.2408 13.5449 29.2489C11.5328 28.257 9.85991 26.6909 8.73769 24.7485L3.32363 15.3711C3.01898 14.8438 2.85275 14.248 2.8404 13.6391C2.82806 13.0303 2.97001 12.4282 3.25303 11.889C3.53605 11.3498 3.95093 10.891 4.45904 10.5554C4.96714 10.2197 5.55193 10.0181 6.15894 9.96936L5.72665 9.22057C5.29705 8.47577 5.14739 7.60208 5.30462 6.75676C5.46185 5.91143 5.91563 5.14998 6.5843 4.60945C7.25297 4.06892 8.09262 3.7848 8.95212 3.80824C9.81162 3.83167 10.6345 4.16111 11.2728 4.73727C11.5996 4.20395 12.0594 3.76474 12.6071 3.46271C13.1548 3.16069 13.7717 3.00623 14.3971 3.0145C15.0225 3.02276 15.6351 3.19345 16.1746 3.50983C16.7142 3.82622 17.1623 4.27742 17.4749 4.81919L19.7105 8.69154C20.0569 8.19073 20.5242 7.78563 21.0691 7.51391C21.6141 7.24219 22.2188 7.11267 22.8273 7.1374C23.4357 7.16213 24.0279 7.3403 24.549 7.65535C25.0701 7.97039 25.503 8.41208 25.8076 8.93935L28.3856 13.4047C29.1343 14.6933 29.62 16.1176 29.8145 17.5952C30.0091 19.0727 29.9086 20.5742 29.5189 22.0126ZM26.5995 14.436L24.0214 9.9706C23.92 9.79437 23.7848 9.63987 23.6237 9.51592C23.4625 9.39197 23.2785 9.30101 23.0821 9.24824C22.8857 9.19548 22.6809 9.18194 22.4793 9.2084C22.2777 9.23486 22.0833 9.30081 21.9072 9.40246C21.7312 9.50412 21.5768 9.63949 21.4531 9.80084C21.3294 9.96218 21.2387 10.1463 21.1862 10.3428C21.1337 10.5392 21.1204 10.744 21.1472 10.9456C21.1739 11.1472 21.2402 11.3415 21.3421 11.5174L22.6311 13.7502C22.6483 13.78 22.664 13.8106 22.6781 13.842C22.6885 13.8648 22.6969 13.888 22.7055 13.9112C22.7085 13.9196 22.7123 13.9277 22.7151 13.9361C22.7248 13.9645 22.7326 13.9933 22.7397 14.0222C22.7405 14.0257 22.7418 14.0292 22.7427 14.0328C22.7495 14.0625 22.7547 14.0923 22.7589 14.1222C22.7593 14.1255 22.7602 14.1286 22.7606 14.1319C22.7643 14.1604 22.7663 14.189 22.7676 14.2176C22.7678 14.2226 22.7686 14.2276 22.7688 14.2326C22.7696 14.2589 22.7687 14.2851 22.7675 14.3113C22.7672 14.3188 22.7675 14.3263 22.767 14.3338C22.7654 14.3585 22.762 14.3828 22.7586 14.4072C22.7574 14.4162 22.7569 14.4253 22.7554 14.4343C22.7506 14.4635 22.744 14.4925 22.7367 14.5212C22.7357 14.525 22.7352 14.5289 22.7342 14.5327C22.7332 14.5367 22.7316 14.5404 22.7305 14.5443C22.7225 14.5727 22.7137 14.601 22.7033 14.6287C22.7004 14.6364 22.6967 14.6436 22.6937 14.6512C22.6841 14.6749 22.6744 14.6986 22.6631 14.7216C22.6603 14.7271 22.6571 14.7323 22.6542 14.7378C22.6416 14.7623 22.6285 14.7867 22.6138 14.8102C22.6121 14.813 22.6102 14.8155 22.6085 14.8182C22.5922 14.8439 22.575 14.8691 22.5563 14.8934L22.5541 14.8961C22.5344 14.9216 22.5134 14.9463 22.4912 14.9702L22.4891 14.9722C22.467 14.9958 22.4438 15.0185 22.4191 15.0401C22.4151 15.0437 22.4106 15.0467 22.4065 15.0502C22.3851 15.0684 22.3633 15.0864 22.3401 15.103C22.3122 15.1231 22.2834 15.1417 22.2537 15.1589C21.3063 15.7059 20.6149 16.6069 20.3317 17.6636C20.0485 18.7203 20.1967 19.8463 20.7437 20.7938C20.8805 21.0306 20.9175 21.3121 20.8468 21.5762C20.776 21.8404 20.6032 22.0657 20.3663 22.2024C20.1295 22.3392 19.848 22.3762 19.5838 22.3054C19.3197 22.2347 19.0944 22.0618 18.9577 21.825C18.2268 20.5585 17.9678 19.0741 18.2266 17.6348C18.4855 16.1956 19.2454 14.8945 20.3719 13.962L19.556 12.5487L19.5557 12.5482L15.6888 5.85051C15.4837 5.4952 15.1458 5.23594 14.7495 5.12975C14.3532 5.02356 13.931 5.07915 13.5757 5.28428C13.2204 5.4894 12.9611 5.82727 12.8549 6.22356C12.7488 6.61984 12.8043 7.04208 13.0095 7.39738L16.3609 13.2025C16.4977 13.4394 16.5347 13.7209 16.4639 13.985C16.3931 14.2492 16.2203 14.4745 15.9834 14.6112C15.7466 14.748 15.4651 14.785 15.2009 14.7142C14.9367 14.6435 14.7115 14.4706 14.5747 14.2338L11.2232 8.42863L11.2211 8.42499L10.192 6.64245C9.98674 6.28751 9.64891 6.02861 9.2528 5.92264C8.8567 5.81667 8.43472 5.8723 8.07961 6.07731C7.72451 6.28232 7.46532 6.61993 7.35902 7.01594C7.25272 7.41196 7.30799 7.83398 7.5127 8.18926L9.57483 11.761L9.5752 11.7616L12.4111 16.6737C12.4849 16.8 12.5308 16.9405 12.5458 17.0859C12.5608 17.2314 12.5446 17.3783 12.4982 17.517C12.4518 17.6556 12.3763 17.7827 12.2768 17.8898C12.1772 17.9969 12.056 18.0815 11.9211 18.1379C11.9099 18.1426 11.8987 18.1467 11.8875 18.151C11.8591 18.162 11.8304 18.1716 11.8015 18.1799C11.79 18.1832 11.7786 18.1867 11.767 18.1895C11.7312 18.1986 11.695 18.2057 11.6585 18.2108C11.6553 18.2112 11.6521 18.2121 11.6489 18.2125C11.6091 18.2174 11.5691 18.2199 11.529 18.2201C11.5257 18.2202 11.5224 18.2208 11.5191 18.2208C11.5123 18.2208 11.5057 18.2196 11.4989 18.2195C11.4676 18.2189 11.4365 18.2168 11.4055 18.2134C11.3944 18.2122 11.3834 18.2111 11.3724 18.2095C11.3353 18.2043 11.2986 18.1971 11.2623 18.188C11.2597 18.1873 11.2572 18.187 11.2546 18.1863C11.2157 18.1758 11.1775 18.1631 11.1401 18.1482C11.1305 18.1444 11.1212 18.1401 11.1117 18.136C11.0832 18.1238 11.0554 18.1104 11.0281 18.0956C11.0183 18.0904 11.0085 18.0852 10.9988 18.0796C10.9646 18.0599 10.9316 18.0383 10.8998 18.0148L10.8976 18.0133C10.8649 17.9884 10.8337 17.9615 10.8042 17.9329C10.7965 17.9254 10.7891 17.9174 10.7815 17.9097C10.7592 17.8869 10.7379 17.8629 10.7176 17.8378C10.7106 17.829 10.7034 17.8205 10.6966 17.8115C10.6705 17.7775 10.6466 17.7419 10.625 17.705L7.78902 12.7929C7.58372 12.438 7.24588 12.1791 6.84976 12.0731C6.45364 11.9671 6.03165 12.0228 5.67654 12.2278C5.32144 12.4329 5.06227 12.7705 4.956 13.1665C4.84973 13.5626 4.90505 13.9846 5.10981 14.3399L10.5239 23.7172C11.755 25.8484 13.7821 27.4033 16.1595 28.04C18.5369 28.6767 21.0698 28.3431 23.2012 27.1125C25.3327 25.882 26.8881 23.8552 27.5253 21.478C28.1626 19.1007 27.8296 16.5677 26.5995 14.436ZM11.0411 30.0904C9.41694 28.9659 8.06392 27.4934 7.08054 25.7801C7.01283 25.6628 6.92268 25.56 6.81524 25.4776C6.7078 25.3951 6.58518 25.3347 6.45438 25.2996C6.32357 25.2646 6.18714 25.2556 6.05288 25.2733C5.91862 25.291 5.78916 25.3349 5.67189 25.4026C5.55461 25.4704 5.45183 25.5605 5.36939 25.6679C5.28696 25.7754 5.22649 25.898 5.19145 26.0288C5.1564 26.1596 5.14746 26.296 5.16514 26.4303C5.18282 26.5646 5.22677 26.694 5.29449 26.8113C6.42954 28.7886 7.99124 30.4878 9.86587 31.7853C9.97716 31.8626 10.1026 31.9171 10.2349 31.9459C10.3673 31.9746 10.5041 31.977 10.6374 31.9529C10.7707 31.9288 10.8979 31.8786 11.0118 31.8054C11.1257 31.7321 11.2241 31.637 11.3013 31.5257C11.3785 31.4144 11.433 31.289 11.4617 31.1566C11.4904 31.0242 11.4927 30.8875 11.4685 30.7542C11.4444 30.6209 11.3942 30.4937 11.3209 30.3798C11.2475 30.2659 11.1525 30.1676 11.0411 30.0904Z" fill="white"/>
</svg>
