<svg width="69" height="69" viewBox="0 0 69 69" fill="none" xmlns="http://www.w3.org/2000/svg">
<path d="M53.9259 68.9976C53.0874 68.9976 52.4046 68.3172 52.4046 67.4787V44.3933C52.4046 36.0465 48.121 36.0465 46.5063 36.0465C42.0071 36.0465 39.7287 38.8543 39.7287 44.3933V67.4811C39.7287 68.3196 39.0483 69 38.2098 69H25.1554C24.3168 69 23.6364 68.3196 23.6364 67.4811V23.5023C23.6364 22.6638 24.3168 21.9834 25.1554 21.9834H38.2122C39.0507 21.9834 39.7311 22.6638 39.7311 23.5023V25.141L40.5169 24.4918C43.6074 21.9355 47.2945 20.6394 51.4751 20.6394C56.6427 20.6394 60.9934 22.2901 64.0551 25.4165C67.2894 28.7179 68.9976 33.634 68.9976 39.6305V67.4811C68.9976 68.3196 68.3148 69 67.4763 69L53.9259 68.9976ZM46.5087 33.0039C49.8483 33.0039 55.4496 34.4844 55.4496 44.3933V65.9598H65.955V39.6305C65.955 29.4941 60.6771 23.682 51.4751 23.682C43.2576 23.682 39.6976 29.887 39.549 30.1505C39.2807 30.6369 38.7728 30.9387 38.2194 30.9387C38.0948 30.9387 37.9678 30.9196 37.8384 30.8884C37.1628 30.7183 36.6909 30.117 36.6909 29.427V25.026H26.6767V65.9622H36.6909V44.3933C36.6909 37.2611 40.3612 33.0039 46.5087 33.0039Z" fill="white"/>
<path d="M2.82697 68.9976C1.98845 68.9976 1.30566 68.3172 1.30566 67.4787V23.5023C1.30566 22.6638 1.98845 21.9834 2.82697 21.9834H16.4468C17.2853 21.9834 17.9657 22.6638 17.9657 23.5023V67.4787C17.9657 68.3172 17.2853 68.9976 16.4468 68.9976H2.82697ZM4.34827 65.9598H14.9255V25.0236H4.34827V65.9598Z" fill="white"/>
<path d="M9.57581 19.2594C4.29558 19.2594 0 14.9399 0 9.63091C0 4.31954 4.29558 0 9.57581 0C14.8489 0 19.142 4.32193 19.142 9.63331C19.142 14.9399 14.8489 19.2594 9.57581 19.2594ZM9.57581 3.03302C5.9726 3.03302 3.0426 5.99177 3.0426 9.63091C3.0426 13.2677 5.9726 16.2216 9.57581 16.2216C13.1766 16.2216 16.1042 13.2677 16.1042 9.63091C16.1018 5.99417 13.1766 3.03302 9.57581 3.03302Z" fill="white"/>
</svg>
