<svg width="270" height="70" viewBox="0 0 270 70" fill="none" xmlns="http://www.w3.org/2000/svg">
<g clip-path="url(#clip0_360_61)">
<path d="M-176.273 60.2V7.51523H-166.263V60.2H-176.273ZM-132.596 61.1216C-137.216 61.1216 -141.195 60.3793 -144.531 58.8944C-147.868 57.4095 -150.435 55.1569 -152.231 52.136C-153.977 49.064 -154.849 45.2497 -154.849 40.6928V7.51523H-144.839V40.3856C-144.839 44.4303 -143.787 47.5023 -141.682 49.6016C-139.526 51.6496 -136.498 52.6736 -132.596 52.6736C-128.695 52.6736 -125.666 51.6496 -123.51 49.6016C-121.303 47.5023 -120.199 44.4303 -120.199 40.3856V7.51523H-110.189V40.6928C-110.189 45.2497 -111.088 49.064 -112.884 52.136C-114.681 55.1569 -117.248 57.4095 -120.584 58.8944C-123.921 60.3793 -127.925 61.1216 -132.596 61.1216ZM-98.8218 60.2V7.51523H-71.0248C-67.1235 7.51523 -63.8895 8.18082 -61.3228 9.51203C-58.756 10.8432 -56.831 12.7376 -55.5478 15.1952C-54.2645 17.6528 -53.6228 20.5455 -53.6228 23.8736C-53.6228 27.3039 -54.3928 30.3505 -55.9328 33.0128C-57.4728 35.624 -59.7315 37.5951 -62.7088 38.9264L-51.7748 60.2H-62.7088L-72.4108 40.616H-88.8118V60.2H-98.8218ZM-88.8118 32.2448H-71.7948C-69.228 32.2448 -67.2518 31.5025 -65.8658 30.0176C-64.4798 28.5327 -63.7868 26.4848 -63.7868 23.8736C-63.7868 22.184 -64.0948 20.7759 -64.7108 19.6496C-65.3268 18.4719 -66.225 17.576 -67.4058 16.9616C-68.5865 16.3472 -70.0495 16.04 -71.7948 16.04H-88.8118V32.2448ZM-43.6284 60.2V7.51523H-33.6184V60.2H-43.6284ZM1.35715 61.1216C-4.03285 61.1216 -8.65285 60.1744 -12.5028 58.28C-16.3016 56.3857 -19.2276 53.4416 -21.2809 49.448C-23.2829 45.4033 -24.2839 40.2064 -24.2839 33.8576C-24.2839 24.5905 -22.0253 17.7296 -17.5078 13.2752C-12.9906 8.82083 -6.70235 6.59363 1.35715 6.59363C5.7204 6.59363 9.6474 7.33602 13.1382 8.82083C16.6801 10.3056 19.4777 12.5584 21.5311 15.5792C23.6357 18.5487 24.6882 22.3376 24.6882 26.9456H14.4471C14.4471 24.3855 13.8824 22.2351 12.7531 20.4944C11.6751 18.7023 10.1607 17.3456 8.21016 16.424C6.25941 15.5024 4.0264 15.0416 1.51115 15.0416C-1.9796 15.0416 -4.87985 15.7328 -7.18985 17.1152C-9.49985 18.4465 -11.2196 20.4433 -12.3489 23.1056C-13.4268 25.7679 -13.9659 29.0704 -13.9659 33.0128V34.7024C-13.9659 38.696 -13.4268 42.0241 -12.3489 44.6864C-11.2196 47.3487 -9.5256 49.3456 -7.26686 50.6768C-4.95686 52.0081 -2.03085 52.6736 1.51115 52.6736C4.1804 52.6736 6.51616 52.2385 8.51816 51.368C10.5202 50.4464 12.0602 49.1152 13.1382 47.3744C14.2674 45.5824 14.8322 43.4065 14.8322 40.8464H24.6882C24.6882 45.4544 23.6614 49.2688 21.6081 52.2896C19.5546 55.2592 16.7571 57.4864 13.2151 58.9712C9.7244 60.4048 5.77165 61.1216 1.35715 61.1216ZM57.8523 61.1216C52.3595 61.1216 47.6113 60.1489 43.6073 58.2032C39.6033 56.2064 36.5233 53.1856 34.3673 49.1408C32.2625 45.0961 31.2103 40.0016 31.2103 33.8576C31.2103 27.6625 32.2625 22.568 34.3673 18.5744C36.5233 14.5296 39.6033 11.5344 43.6073 9.58883C47.6113 7.59203 52.3595 6.59363 57.8523 6.59363C63.3968 6.59363 68.1443 7.59203 72.0978 9.58883C76.1018 11.5344 79.1553 14.5296 81.2608 18.5744C83.4168 22.568 84.4948 27.6625 84.4948 33.8576C84.4948 40.0016 83.4168 45.0961 81.2608 49.1408C79.1553 53.1856 76.1018 56.2064 72.0978 58.2032C68.1443 60.1489 63.3968 61.1216 57.8523 61.1216ZM57.8523 52.6736C60.5213 52.6736 62.8578 52.2896 64.8598 51.5216C66.9123 50.7536 68.6328 49.6273 70.0188 48.1424C71.4048 46.6064 72.4563 44.7375 73.1758 42.536C73.8928 40.2831 74.2538 37.6976 74.2538 34.7792V33.0896C74.2538 30.1201 73.8928 27.5089 73.1758 25.256C72.4563 23.0031 71.4048 21.1345 70.0188 19.6496C68.6328 18.1136 66.9123 16.9616 64.8598 16.1936C62.8578 15.4256 60.5213 15.0416 57.8523 15.0416C55.1828 15.0416 52.8215 15.4256 50.7683 16.1936C48.7663 16.9616 47.0723 18.1136 45.6863 19.6496C44.3003 21.1345 43.2478 23.0031 42.5293 25.256C41.8618 27.5089 41.5283 30.1201 41.5283 33.0896V34.7792C41.5283 37.6976 41.8618 40.2831 42.5293 42.536C43.2478 44.7375 44.3003 46.6064 45.6863 48.1424C47.0723 49.6273 48.7663 50.7536 50.7683 51.5216C52.8215 52.2896 55.1828 52.6736 57.8523 52.6736ZM186.32 60.2V7.51523H227.515V16.04H196.33V29.0192H224.127V37.544H196.33V51.6752H227.977V60.2H186.32Z" fill="white"/>
<path d="M117.968 9.34017C116.917 9.34017 116.089 9.49 115.487 9.78969C114.936 10.0894 114.537 10.7636 114.286 11.8125C114.084 12.8614 113.986 14.5346 113.986 16.8321V24.1741C113.986 26.0723 113.685 27.7203 113.083 29.1188C112.532 30.4674 111.88 31.5663 111.13 32.4152C110.376 33.2643 109.676 33.9138 109.024 34.3633C109.575 34.7629 110.227 35.3871 110.978 36.2363C111.779 37.0352 112.482 38.0343 113.083 39.2329C113.685 40.3818 113.986 41.6804 113.986 43.1288V52.119C113.986 54.3666 114.084 56.0149 114.286 57.0637C114.537 58.1125 114.936 58.7869 115.487 59.0867C116.089 59.3862 116.917 59.5362 117.968 59.5362H120.75V68.6763H114.811C113.408 68.6763 112.005 68.6511 110.603 68.6012C109.25 68.5513 107.997 68.2767 106.846 67.7773C105.694 67.3278 104.765 66.4537 104.065 65.155C103.413 63.9063 103.088 62.0833 103.088 59.6859V47.3242C103.088 45.8259 102.862 44.4274 102.412 43.1288C101.959 41.7802 101.283 40.6813 100.381 39.8324C99.4808 38.9833 98.3523 38.5587 97 38.5587V29.8681C98.3523 29.8182 99.4808 29.3936 100.381 28.5944C101.283 27.7453 101.959 26.6715 102.412 25.3729C102.862 24.0243 103.088 22.6009 103.088 21.1026V9.26524C103.088 6.86784 103.413 5.0448 104.065 3.79615C104.717 2.54748 105.593 1.67342 106.695 1.17396C107.847 0.674492 109.125 0.399788 110.528 0.349844C111.931 0.249956 113.358 0.200012 114.811 0.200012H120.75V9.34017H117.968ZM174 35.0374C174 40.1319 173.374 44.9019 172.121 49.347C170.918 53.7922 169.366 57.7381 167.462 61.1842C165.559 64.6806 163.528 67.5524 161.374 69.8L152.731 65.8292C154.685 63.5816 156.439 60.9347 157.991 57.8878C159.546 54.891 160.773 51.4947 161.675 47.6989C162.578 43.8529 163.028 39.6325 163.028 35.0374C163.028 30.4424 162.578 26.247 161.675 22.4511C160.773 18.6051 159.546 15.1839 157.991 12.1871C156.439 9.14037 154.685 6.5182 152.731 4.32057L161.374 0.27494C163.528 2.52252 165.559 5.39443 167.462 8.89065C169.366 12.3869 170.918 16.3576 172.121 20.8028C173.374 25.1982 174 29.943 174 35.0374Z" fill="#986DFF"/>
</g>
<path d="M1.64 21H8.36C10.5467 21 12.1867 21.5867 13.28 22.76C14.3733 23.9333 14.92 25.6533 14.92 27.92V42.08C14.92 44.3467 14.3733 46.0667 13.28 47.24C12.1867 48.4133 10.5467 49 8.36 49H1.64V21ZM8.28 45C9 45 9.54667 44.7867 9.92 44.36C10.32 43.9333 10.52 43.24 10.52 42.28V27.72C10.52 26.76 10.32 26.0667 9.92 25.64C9.54667 25.2133 9 25 8.28 25H6.04V45H8.28ZM17.89 21H29.89V25H22.29V32.4H28.33V36.4H22.29V45H29.89V49H17.89V21ZM38.2194 49.4C36.086 49.4 34.4727 48.8 33.3794 47.6C32.286 46.3733 31.7394 44.6267 31.7394 42.36V40.76H35.8994V42.68C35.8994 44.4933 36.6594 45.4 38.1794 45.4C38.926 45.4 39.486 45.1867 39.8594 44.76C40.2594 44.3067 40.4594 43.5867 40.4594 42.6C40.4594 41.4267 40.1927 40.4 39.6594 39.52C39.126 38.6133 38.1394 37.5333 36.6994 36.28C34.886 34.68 33.6194 33.24 32.8994 31.96C32.1794 30.6533 31.8194 29.1867 31.8194 27.56C31.8194 25.3467 32.3794 23.64 33.4994 22.44C34.6194 21.2133 36.246 20.6 38.3794 20.6C40.486 20.6 42.0727 21.2133 43.1394 22.44C44.2327 23.64 44.7794 25.3733 44.7794 27.64V28.8H40.6194V27.36C40.6194 26.4 40.4327 25.7067 40.0594 25.28C39.686 24.8267 39.1394 24.6 38.4194 24.6C36.9527 24.6 36.2194 25.4933 36.2194 27.28C36.2194 28.2933 36.486 29.24 37.0194 30.12C37.5794 31 38.5794 32.0667 40.0194 33.32C41.8594 34.92 43.126 36.3733 43.8194 37.68C44.5127 38.9867 44.8594 40.52 44.8594 42.28C44.8594 44.5733 44.286 46.3333 43.1394 47.56C42.0194 48.7867 40.3794 49.4 38.2194 49.4ZM50.665 21H56.625L61.185 49H56.785L55.985 43.44V43.52H50.985L50.185 49H46.105L50.665 21ZM55.465 39.72L53.505 25.88H53.425L51.505 39.72H55.465ZM63.3197 21H74.9597V25H67.7197V32.8H73.3997V36.8H67.7197V49H63.3197V21ZM77.0697 21H81.4697V49H77.0697V21ZM91.125 49.4C88.965 49.4 87.3117 48.7867 86.165 47.56C85.0183 46.3333 84.445 44.6 84.445 42.36V27.64C84.445 25.4 85.0183 23.6667 86.165 22.44C87.3117 21.2133 88.965 20.6 91.125 20.6C93.285 20.6 94.9383 21.2133 96.085 22.44C97.2317 23.6667 97.805 25.4 97.805 27.64V42.36C97.805 44.6 97.2317 46.3333 96.085 47.56C94.9383 48.7867 93.285 49.4 91.125 49.4ZM91.125 45.4C92.645 45.4 93.405 44.48 93.405 42.64V27.36C93.405 25.52 92.645 24.6 91.125 24.6C89.605 24.6 88.845 25.52 88.845 27.36V42.64C88.845 44.48 89.605 45.4 91.125 45.4ZM106.501 49.4C104.367 49.4 102.754 48.8 101.661 47.6C100.567 46.3733 100.021 44.6267 100.021 42.36V40.76H104.181V42.68C104.181 44.4933 104.941 45.4 106.461 45.4C107.207 45.4 107.767 45.1867 108.141 44.76C108.541 44.3067 108.741 43.5867 108.741 42.6C108.741 41.4267 108.474 40.4 107.941 39.52C107.407 38.6133 106.421 37.5333 104.981 36.28C103.167 34.68 101.901 33.24 101.181 31.96C100.461 30.6533 100.101 29.1867 100.101 27.56C100.101 25.3467 100.661 23.64 101.781 22.44C102.901 21.2133 104.527 20.6 106.661 20.6C108.767 20.6 110.354 21.2133 111.421 22.44C112.514 23.64 113.061 25.3733 113.061 27.64V28.8H108.901V27.36C108.901 26.4 108.714 25.7067 108.341 25.28C107.967 24.8267 107.421 24.6 106.701 24.6C105.234 24.6 104.501 25.4933 104.501 27.28C104.501 28.2933 104.767 29.24 105.301 30.12C105.861 31 106.861 32.0667 108.301 33.32C110.141 34.92 111.407 36.3733 112.101 37.68C112.794 38.9867 113.141 40.52 113.141 42.28C113.141 44.5733 112.567 46.3333 111.421 47.56C110.301 48.7867 108.661 49.4 106.501 49.4ZM128.27 49.4C126.163 49.4 124.55 48.8 123.43 47.6C122.336 46.4 121.79 44.7067 121.79 42.52V27.48C121.79 25.2933 122.336 23.6 123.43 22.4C124.55 21.2 126.163 20.6 128.27 20.6C130.376 20.6 131.976 21.2 133.07 22.4C134.19 23.6 134.75 25.2933 134.75 27.48V30.44H130.59V27.2C130.59 25.4667 129.856 24.6 128.39 24.6C126.923 24.6 126.19 25.4667 126.19 27.2V42.84C126.19 44.5467 126.923 45.4 128.39 45.4C129.856 45.4 130.59 44.5467 130.59 42.84V38.56H134.75V42.52C134.75 44.7067 134.19 46.4 133.07 47.6C131.976 48.8 130.376 49.4 128.27 49.4ZM143.82 49.4C141.66 49.4 140.007 48.7867 138.86 47.56C137.714 46.3333 137.14 44.6 137.14 42.36V27.64C137.14 25.4 137.714 23.6667 138.86 22.44C140.007 21.2133 141.66 20.6 143.82 20.6C145.98 20.6 147.634 21.2133 148.78 22.44C149.927 23.6667 150.5 25.4 150.5 27.64V42.36C150.5 44.6 149.927 46.3333 148.78 47.56C147.634 48.7867 145.98 49.4 143.82 49.4ZM143.82 45.4C145.34 45.4 146.1 44.48 146.1 42.64V27.36C146.1 25.52 145.34 24.6 143.82 24.6C142.3 24.6 141.54 25.52 141.54 27.36V42.64C141.54 44.48 142.3 45.4 143.82 45.4ZM153.476 21H160.196C162.383 21 164.023 21.5867 165.116 22.76C166.209 23.9333 166.756 25.6533 166.756 27.92V42.08C166.756 44.3467 166.209 46.0667 165.116 47.24C164.023 48.4133 162.383 49 160.196 49H153.476V21ZM160.116 45C160.836 45 161.383 44.7867 161.756 44.36C162.156 43.9333 162.356 43.24 162.356 42.28V27.72C162.356 26.76 162.156 26.0667 161.756 25.64C161.383 25.2133 160.836 25 160.116 25H157.876V45H160.116ZM169.726 21H181.726V25H174.126V32.4H180.166V36.4H174.126V45H181.726V49H169.726V21ZM184.257 21H188.657V45H195.897V49H184.257V21ZM201.563 21H207.523L212.083 49H207.683L206.883 43.44V43.52H201.883L201.083 49H197.003L201.563 21ZM206.363 39.72L204.403 25.88H204.323L202.403 39.72H206.363ZM202.483 14.52H206.643L209.923 19.12H206.603L204.563 16.92L202.523 19.12H199.203L202.483 14.52ZM214.218 21H219.738L224.018 37.76H224.098V21H228.018V49H223.498L218.218 28.56H218.138V49H214.218V21ZM231.288 21H238.008C240.195 21 241.835 21.5867 242.928 22.76C244.022 23.9333 244.568 25.6533 244.568 27.92V42.08C244.568 44.3467 244.022 46.0667 242.928 47.24C241.835 48.4133 240.195 49 238.008 49H231.288V21ZM237.928 45C238.648 45 239.195 44.7867 239.568 44.36C239.968 43.9333 240.168 43.24 240.168 42.28V27.72C240.168 26.76 239.968 26.0667 239.568 25.64C239.195 25.2133 238.648 25 237.928 25H235.688V45H237.928ZM247.538 21H251.938V49H247.538V21ZM258.634 21H264.594L269.154 49H264.754L263.954 43.44V43.52H258.954L258.154 49H254.074L258.634 21ZM263.434 39.72L261.474 25.88H261.394L259.474 39.72H263.434Z" fill="white"/>
<defs>
<clipPath id="clip0_360_61">
<rect width="77" height="70" fill="white" transform="translate(97)"/>
</clipPath>
</defs>
</svg>
